<?xml version="1.0" encoding="UTF-8" standalone="no"?>
<!-- Created with Inkscape (http://www.inkscape.org/) -->

<svg
   xmlns:dc="http://purl.org/dc/elements/1.1/"
   xmlns:cc="http://creativecommons.org/ns#"
   xmlns:rdf="http://www.w3.org/1999/02/22-rdf-syntax-ns#"
   xmlns:svg="http://www.w3.org/2000/svg"
   xmlns="http://www.w3.org/2000/svg"
   xmlns:xlink="http://www.w3.org/1999/xlink"
   xmlns:sodipodi="http://sodipodi.sourceforge.net/DTD/sodipodi-0.dtd"
   xmlns:inkscape="http://www.inkscape.org/namespaces/inkscape"
   width="512"
   height="512"
   id="svg3804"
   version="1.1"
   inkscape:version="0.48.4 r9939"
   sodipodi:docname="fire.svg"
   inkscape:export-filename="/home/cael6/AndroidStudioProjects/eh/eh/src/main/res/_pre_prdouction/fire.png"
   inkscape:export-xdpi="90.175781"
   inkscape:export-ydpi="90.175781">
  <defs
     id="defs3806">
    <linearGradient
       id="linearGradient4366">
      <stop
         id="stop4368"
         offset="0"
         style="stop-color:#ff6a00;stop-opacity:1;" />
      <stop
         id="stop4370"
         offset="1"
         style="stop-color:#ffd504;stop-opacity:1;" />
    </linearGradient>
    <linearGradient
       id="linearGradient4326">
      <stop
         style="stop-color:#ff1f1f;stop-opacity:1;"
         offset="0"
         id="stop4328" />
      <stop
         style="stop-color:#ffad52;stop-opacity:1;"
         offset="1"
         id="stop4330" />
    </linearGradient>
    <linearGradient
       inkscape:collect="always"
       xlink:href="#linearGradient4326"
       id="linearGradient4356"
       x1="256"
       y1="512"
       x2="264"
       y2="0"
       gradientUnits="userSpaceOnUse" />
    <linearGradient
       inkscape:collect="always"
       xlink:href="#linearGradient4366"
       id="linearGradient4364"
       x1="256"
       y1="512"
       x2="256"
       y2="0"
       gradientUnits="userSpaceOnUse" />
    <filter
       inkscape:collect="always"
       id="filter4384"
       x="-0.23295896"
       width="1.4659179"
       y="-0.077759433"
       height="1.1555189">
      <feGaussianBlur
         inkscape:collect="always"
         stdDeviation="9.232667"
         id="feGaussianBlur4386" />
    </filter>
  </defs>
  <sodipodi:namedview
     id="base"
     pagecolor="#ffffff"
     bordercolor="#666666"
     borderopacity="1.0"
     inkscape:pageopacity="0.0"
     inkscape:pageshadow="2"
     inkscape:zoom="1.4505998"
     inkscape:cx="122.62972"
     inkscape:cy="297.85724"
     inkscape:document-units="px"
     inkscape:current-layer="layer1"
     showgrid="true"
     inkscape:window-width="1301"
     inkscape:window-height="744"
     inkscape:window-x="65"
     inkscape:window-y="24"
     inkscape:window-maximized="1">
    <inkscape:grid
       type="xygrid"
       id="grid3812"
       empspacing="4"
       visible="true"
       enabled="true"
       snapvisiblegridlinesonly="true" />
  </sodipodi:namedview>
  <metadata
     id="metadata3809">
    <rdf:RDF>
      <cc:Work
         rdf:about="">
        <dc:format>image/svg+xml</dc:format>
        <dc:type
           rdf:resource="http://purl.org/dc/dcmitype/StillImage" />
        <dc:title></dc:title>
      </cc:Work>
    </rdf:RDF>
  </metadata>
  <g
     inkscape:label="Layer 1"
     inkscape:groupmode="layer"
     id="layer1"
     transform="translate(0,-540.36218)">
    <path
       style="fill:url(#linearGradient4356);fill-opacity:1.0;stroke:#000000;stroke-width:1px;stroke-linecap:butt;stroke-linejoin:miter;stroke-opacity:1"
       d="m 64,320 c 0,120 104,192 192,192 88,0 192,-72 192,-192 -1.41577,-63.63785 22.44539,-109.6332 0,-192 -6.57,30.69714 -12.89437,61.95571 -32,64 -7.74401,-32.83504 -1.11194,-69.77754 -32,-96 2.32401,35.90908 -10.17653,33.27436 -16,48 3.68794,-29.89362 10.32222,-62.365273 0,-80 -10.66667,46.54905 -21.33333,63.31314 -32,64 -9.11177,-29.481044 -22.51348,-56.102126 -16,-96 -16.79292,25.393379 -15.05061,52.846228 -16,80 -2.92006,-14.274741 0.41767,-30.85645 -8,-48 0.14088,17.826428 -12.78426,41.92177 -16,48 9.66868,-79.894335 -2.82918,-108.1272895 -16,-112 2.98276,50.98276 -9.26655,86.733452 -32,112 -9.79807,-13.76763 -17.15165,-28.757509 -16,-48 -10.95769,16 -9.63139,32 -8,48 -9.40478,-19.551521 -24.5701,-20.861341 -24,-72 -10.41837,7.287402 -8.08366,46.457525 -8,80 0.12804,-18.43841 -5.79457,-35.061628 -24,-48 4.96646,32.23781 -0.20422,49.99398 -8,64 -6.09606,-5.71757 -16.7124,-29.51625 -32,-72 C 86.877875,109.08563 95.106937,122.74338 96,176 76.5564,162.73035 65.078766,139.31468 64,104 28.013577,185.38776 62.382192,248.42204 64,320 z"
       id="path3816"
       inkscape:connector-curvature="0"
       sodipodi:nodetypes="csccccccccccccccccccccccc"
       transform="translate(0,540.36218)" />
    <path
       style="fill:url(#linearGradient4364);stroke:#000000;stroke-width:1px;stroke-linecap:butt;stroke-linejoin:miter;stroke-opacity:1;fill-opacity:1.0"
       d="M 256,480 C 200,480 96,440 96,320 82.290058,288.92331 81.151078,252.45906 80,216 c 7.842647,13.49069 13.629174,29.03749 32,32 9.2462,-31.80066 13.42743,-61.70195 8,-88 9.46728,11.59815 18.94328,23.17015 32,24 7.16955,-14.49904 11.78583,-29.84917 8,-48 12.44733,7.1088 20.74232,17.53948 24,32 -1.01771,-14.80708 -0.10147,-36.84059 8,-48 0.51518,23.3131 12.84625,30.87166 24,40 5.75454,-11.03152 11.28998,-17.35067 8,-32 11.01094,8.81692 12.29395,12.22573 16,32 19.01777,-18.82562 21.77014,-41.35335 24,-64 4.68285,18.66667 9.50993,37.33333 16,56 3.76626,-9.29217 10.94757,-14.31553 8,-32 18.4772,22.1617 13.40843,30.24055 24,40 -1.02358,-18.46017 -1.76863,-36.73464 8,-48 1.59049,24.56187 9.09043,31.39537 16,40 8.70187,-3.78878 17.11596,-9.30423 24,-24 -2.17735,49.50151 -7.47911,38.02185 -8,56 17.45629,-1.04643 33.43377,-5.54342 40,-32 19.22618,35.35497 6.713,59.16836 8,88 11.533,-5.46864 22.30408,-15.50884 32,-32 4.25896,86.89354 -10.37209,76.18862 -16,112 0,120 -104,160 -160,160 z"
       id="path4348"
       inkscape:connector-curvature="0"
       sodipodi:nodetypes="ccccccccccccccccccccccccc"
       transform="translate(0,540.36218)" />
    <text
       sodipodi:linespacing="125%"
       id="text4376"
       y="1028.3622"
       x="272"
       style="font-size:256px;font-style:normal;font-weight:bold;line-height:125%;letter-spacing:0px;word-spacing:0px;fill:#444444;fill-opacity:1;stroke:none;filter:url(#filter4384);font-family:Roboto Condensed;-inkscape-font-specification:Sans Bold"
       xml:space="preserve"><tspan
         style="font-size:400px;text-align:center;text-anchor:middle;fill:#444444;fill-opacity:1"
         y="1028.3622"
         x="272"
         id="tspan4378"
         sodipodi:role="line" /></text>
    <text
       xml:space="preserve"
       style="font-size:256px;font-style:normal;font-weight:bold;line-height:125%;letter-spacing:0px;word-spacing:0px;fill:#ffffff;fill-opacity:1;stroke:none;font-family:Roboto Condensed;-inkscape-font-specification:Sans Bold"
       x="256"
       y="1020.3622"
       id="text4372"
       sodipodi:linespacing="125%"><tspan
         sodipodi:role="line"
         id="tspan4374"
         x="256"
         y="1020.3622"
         style="font-size:400px;text-align:center;text-anchor:middle" /></text>
  </g>
</svg>
